<svg width="20" height="20" viewBox="0 0 20 20" fill="none" xmlns="http://www.w3.org/2000/svg">
<g clip-path="url(#clip0_24360_283)">
<path d="M3.33331 11.6589C3.17561 11.6594 3.021 11.6152 2.88743 11.5314C2.75387 11.4476 2.64683 11.3275 2.57876 11.1853C2.51069 11.043 2.48438 10.8844 2.50289 10.7278C2.52139 10.5712 2.58396 10.423 2.68331 10.3006L10.9333 1.80058C10.9952 1.72914 11.0795 1.68087 11.1725 1.66369C11.2654 1.6465 11.3614 1.66142 11.4447 1.706C11.5281 1.75057 11.5938 1.82216 11.6311 1.909C11.6684 1.99584 11.675 2.09278 11.65 2.18391L10.05 7.20057C10.0028 7.32684 9.98695 7.46268 10.0038 7.59641C10.0206 7.73015 10.0697 7.85781 10.1467 7.96843C10.2237 8.07905 10.3265 8.16934 10.446 8.23154C10.5656 8.29375 10.6985 8.32601 10.8333 8.32558H16.6666C16.8243 8.32504 16.9789 8.36926 17.1125 8.45309C17.2461 8.53693 17.3531 8.65695 17.4212 8.79919C17.4893 8.94144 17.5156 9.10009 17.4971 9.25669C17.4786 9.4133 17.416 9.56144 17.3166 9.68391L9.06664 18.1839C9.00475 18.2553 8.92042 18.3036 8.82749 18.3208C8.73455 18.338 8.63854 18.3231 8.5552 18.2785C8.47186 18.2339 8.40615 18.1623 8.36886 18.0755C8.33157 17.9886 8.32491 17.8917 8.34997 17.8006L9.94997 12.7839C9.99715 12.6576 10.013 12.5218 9.99615 12.3881C9.9793 12.2543 9.93026 12.1267 9.85323 12.0161C9.77621 11.9054 9.6735 11.8151 9.55391 11.7529C9.43433 11.6907 9.30144 11.6585 9.16664 11.6589H3.33331Z" stroke="#0F172B" stroke-width="1.66667" stroke-linecap="round" stroke-linejoin="round"/>
</g>
<defs>
<clipPath id="clip0_24360_283">
<rect width="20" height="20" fill="white" transform="translate(0 -0.0078125)"/>
</clipPath>
</defs>
</svg>
