<svg width="32" height="32" viewBox="0 0 32 32" fill="none" xmlns="http://www.w3.org/2000/svg">
<path d="M19.5999 8.40006C19.3556 8.64929 19.2188 8.98438 19.2188 9.33339C19.2188 9.68239 19.3556 10.0175 19.5999 10.2667L21.7333 12.4001C21.9825 12.6444 22.3176 12.7812 22.6666 12.7812C23.0156 12.7812 23.3507 12.6444 23.5999 12.4001L28.6266 7.37339C29.297 8.85497 29.5 10.5057 29.2085 12.1056C28.917 13.7055 28.1449 15.1785 26.995 16.3284C25.8451 17.4783 24.372 18.2505 22.7721 18.542C21.1722 18.8335 19.5215 18.6305 18.0399 17.9601L8.8266 27.1734C8.29616 27.7038 7.57674 28.0018 6.8266 28.0018C6.07645 28.0018 5.35703 27.7038 4.8266 27.1734C4.29616 26.643 3.99817 25.9235 3.99817 25.1734C3.99817 24.4232 4.29616 23.7038 4.8266 23.1734L14.0399 13.9601C13.3695 12.4785 13.1665 10.8277 13.458 9.22786C13.7495 7.62798 14.5216 6.15493 15.6716 5.00502C16.8215 3.8551 18.2945 3.08295 19.8944 2.79144C21.4943 2.49994 23.145 2.70294 24.6266 3.37339L19.6133 8.38672L19.5999 8.40006Z" stroke="white" stroke-width="2.66667" stroke-linecap="round" stroke-linejoin="round"/>
</svg>
