<svg width="20" height="20" viewBox="0 0 20 20" fill="none" xmlns="http://www.w3.org/2000/svg">
<path d="M9.81911 1.82273C9.85316 1.75208 9.90577 1.6926 9.971 1.65102C10.0362 1.60944 10.1115 1.5874 10.1882 1.5874C10.265 1.5874 10.3403 1.60944 10.4055 1.65102C10.4707 1.6926 10.5233 1.75208 10.5574 1.82273L12.3526 5.55666C12.4708 5.80243 12.6454 6.01505 12.8613 6.17629C13.0772 6.33752 13.328 6.44255 13.5921 6.48236L17.6068 7.08567C17.6829 7.09698 17.7543 7.12993 17.8131 7.18079C17.8719 7.23164 17.9157 7.29838 17.9394 7.37344C17.9632 7.4485 17.9661 7.52889 17.9476 7.60552C17.9292 7.68216 17.8903 7.75197 17.8353 7.80707L14.9319 10.7103C14.7404 10.9019 14.5972 11.1384 14.5144 11.3995C14.4317 11.6605 14.412 11.9383 14.4571 12.2089L15.1425 16.3108C15.1559 16.3888 15.1477 16.4692 15.1188 16.5427C15.0899 16.6162 15.0414 16.6799 14.9789 16.7265C14.9165 16.7731 14.8425 16.8007 14.7655 16.8062C14.6885 16.8118 14.6115 16.7949 14.5433 16.7577L10.9545 14.8201C10.718 14.6926 10.4549 14.6259 10.1879 14.6259C9.92077 14.6259 9.65768 14.6926 9.42121 14.8201L5.83316 16.7577C5.76503 16.7947 5.68815 16.8113 5.61125 16.8057C5.53436 16.8001 5.46054 16.7725 5.3982 16.7259C5.33585 16.6793 5.28748 16.6158 5.25859 16.5424C5.2297 16.469 5.22145 16.3887 5.23477 16.3108L5.91943 12.2097C5.96465 11.939 5.94506 11.661 5.86234 11.3998C5.77961 11.1386 5.63624 10.9019 5.4446 10.7103L2.54121 7.80787C2.48571 7.75284 2.44639 7.6829 2.42772 7.60603C2.40904 7.52917 2.41176 7.44846 2.43558 7.3731C2.45939 7.29775 2.50333 7.23078 2.5624 7.17982C2.62147 7.12886 2.6933 7.09596 2.76969 7.08487L6.7836 6.48236C7.04803 6.44286 7.29915 6.33797 7.51535 6.17671C7.73154 6.01546 7.90634 5.80267 8.02469 5.55666L9.81911 1.82273Z" fill="#FDC700" stroke="#FDC700" stroke-width="1.57502" stroke-linecap="round" stroke-linejoin="round"/>
</svg>
